HIERARCHY
ROOT Hips
{
  OFFSET -118.716 76.6958 -116.339
  CHANNELS 6 Xposition Yposition Zposition Zrotation Xrotation Yrotation
  JOINT ToSpine
  {
    OFFSET -2.69724 7.43032 -0.144315
    CHANNELS 3 Zrotation Xrotation Yrotation
    JOINT Spine
    {
      OFFSET -0.0310711 10.7595 1.96963
      CHANNELS 3 Zrotation Xrotation Yrotation
      JOINT Spine1
      {
        OFFSET 13.1342 3.43533 0.764692
        CHANNELS 3 Zrotation Xrotation Yrotation
        JOINT Neck
        {
          OFFSET 29.8703 7.82586 -0.130764
          CHANNELS 3 Zrotation Xrotation Yrotation
          JOINT Head
          {
            OFFSET 9.52751 0.295786 -0.907742
            CHANNELS 3 Zrotation Xrotation Yrotation
            End Site
            {
              OFFSET 16.4037 0.713936 2.7358
            }
          }
        }
        JOINT LeftShoulder
        {
          OFFSET 27.5574 4.95586 2.47156
          CHANNELS 3 Zrotation Xrotation Yrotation
          JOINT LeftArm
          {
            OFFSET 1.20734 -0.998971 20.1238
            CHANNELS 3 Zrotation Xrotation Yrotation
            JOINT LeftForeArm
            {
              OFFSET 26.8049 -0.0536703 -0.155908
              CHANNELS 3 Zrotation Xrotation Yrotation
              JOINT LeftHand
              {
                OFFSET 26.6817 0 0.320147
                CHANNELS 3 Zrotation Xrotation Yrotation
                End Site
                {
                  OFFSET 18.6119 0 0.382219
                }
              }
            }
          }
        }
        JOINT RightShoulder
        {
          OFFSET 27.5927 4.71444 -2.65209
          CHANNELS 3 Zrotation Xrotation Yrotation
          JOINT RightArm
          {
            OFFSET 2.83739 -1.17114 -18.7564
            CHANNELS 3 Zrotation Xrotation Yrotation
            JOINT RightForeArm
            {
              OFFSET 28.839 -0.0548439 1.22491
              CHANNELS 3 Zrotation Xrotation Yrotation
              JOINT RightHand
              {
                OFFSET 26.5114 0 -0.101894
                CHANNELS 3 Zrotation Xrotation Yrotation
                End Site
                {
                  OFFSET 18.2168 0 0
                }
              }
            }
          }
        }
      }
    }
  }
  JOINT LeftUpLeg
  {
    OFFSET -4.76168 -1.9167 -10.2353
    CHANNELS 3 Zrotation Xrotation Yrotation
    JOINT LeftLeg
    {
      OFFSET 2.55951 -42.0585 -8.02213
      CHANNELS 3 Zrotation Xrotation Yrotation
      JOINT LeftFoot
      {
        OFFSET 3.16357 -42.5282 -3.95426
        CHANNELS 3 Zrotation Xrotation Yrotation
        JOINT LeftToeBase
        {
          OFFSET 0.346054 -6.02161 12.8035
          CHANNELS 3 Zrotation Xrotation Yrotation
          End Site
          {
            OFFSET 0.134235 -1.35082 5.13018
          }
        }
      }
    }
  }
  JOINT RightUpLeg
  {
    OFFSET -4.94151 -1.41743 10.6446
    CHANNELS 3 Zrotation Xrotation Yrotation
    JOINT RightLeg
    {
      OFFSET -2.56294 -42.0364 -7.94377
      CHANNELS 3 Zrotation Xrotation Yrotation
      JOINT RightFoot
      {
        OFFSET -3.0952 -42.555 -4.02241
        CHANNELS 3 Zrotation Xrotation Yrotation
        JOINT RightToeBase
        {
          OFFSET -0.0828122 -6.13587 12.8035
          CHANNELS 3 Zrotation Xrotation Yrotation
          End Site
          {
            OFFSET -0.131328 -1.35082 5.13018
          }
        }
      }
    }
  }
}
MOTION
Frames:	18
Frame Time:	0.0333333
-130.459 49.6291 -133.623 56.509 -6.81575 -2.07275 -70.1915 0 88.8779 163.154 45.3953 -70.3823 -10.9256 24.276 5.86732 -148.899 45.6472 160.532 139.703 81.8455 -93.8818 0.28302 -14.6906 -27.1307 -80.8584 52.0699 -66.4232 16.5309 16.5676 -45.6664 0.420957 0.000575478 0.35866 -1.85479 8.86264 34.9853 -91.722 -0.109361 94.7965 13.1565 -17.3847 38.0464 0.58676 0.000331078 0.0646654 -14.5096 -4.213 90.7738 -168.745 40.2256 140.43 -5.54387 -7.20943 -0.290574 30.2793 -35.9215 45.1671 47.9711 -9.5478 93.4567 169.66 60.2822 -173.51 -7.17832 -16.9623 1.3416 2.51137 -4.32032 -16.0094 
-130.459 49.6831 -133.637 56.6177 -6.91187 -1.97961 -70.1915 0 88.8779 163.333 45.2172 -70.5453 -10.9074 24.3652 5.83305 -148.944 45.5543 160.632 140.56 81.8512 -94.6601 0.236822 -14.8936 -27.3975 -80.6201 51.8443 -66.3702 16.2935 16.4626 -45.4095 0.420957 0.000575478 0.35866 -1.83004 8.68222 35.17 -91.4882 0.0602558 94.8262 13.0579 -17.2235 38.081 0.58676 0.000331078 0.0646654 -14.5912 -4.10016 90.6739 -168.719 40.1778 139.682 -5.71232 -7.45494 -0.312177 29.7075 -35.2256 46.0392 47.7102 -9.54179 93.3062 169.631 60.3867 -173.407 -7.11541 -16.798 1.34082 2.55343 -4.9378 -16.4695 
-130.462 49.7165 -133.699 56.7953 -6.75586 -1.77532 -70.1915 0 88.8779 163.556 44.7935 -70.4507 -11.0737 24.3243 5.68492 -148.992 45.5016 160.925 141.134 81.8449 -95.1792 0.1901 -15.1309 -27.521 -81.0109 51.5235 -65.7257 15.551 15.6619 -45.4006 0.420957 0.000575478 0.35866 -1.84268 8.57934 35.5987 -91.2978 0.442694 94.6917 13.1674 -17.2117 38.3405 0.58676 0.000331078 0.0646654 -14.6132 -4.28797 90.5025 -168.741 40.138 140.192 -6.13506 -8.61273 -0.439281 27.7962 -33.7287 46.0888 47.4929 -9.80736 93.3606 169.652 60.3634 -173.519 -7.5368 -16.1815 1.32436 2.45758 -5.93228 -15.7726 
-130.479 49.7199 -133.715 56.9769 -6.75915 -1.6154 -70.1915 0 88.8779 163.722 44.5677 -70.4497 -10.918 24.3358 5.59118 -149.647 45.5568 161.463 141.049 81.8187 -95.3177 0.205277 -15.0478 -27.5057 -80.9609 51.4255 -65.8698 14.9936 15.2955 -44.9739 0.420957 0.000575478 0.35866 -1.82983 8.6103 35.3609 -91.3602 0.0297163 94.564 12.926 -16.833 38.4086 0.58676 0.000331078 0.0646654 -14.7051 -4.23712 90.3937 -168.765 40.0788 140.725 -6.07292 -9.21978 -0.524544 26.1331 -32.5985 45.3963 47.2684 -9.88157 93.2966 169.641 60.3667 -173.456 -7.26134 -16.38 1.33103 2.46218 -5.68449 -15.7862 
-130.51 49.6824 -133.66 56.9056 -6.58364 -1.455 -70.1915 0 88.8779 163.722 44.553 -70.2959 -10.9579 24.29 5.59661 -149.599 45.4851 161.405 140.703 81.5983 -94.8706 0.206984 -15.0187 -27.5814 -80.9701 51.2277 -65.7264 14.8769 15.3044 -44.7264 0.420957 0.000575478 0.35866 -1.84963 8.67087 35.4333 -91.4386 -0.0937642 94.3542 13.3951 -17.3991 38.5435 0.58676 0.000331078 0.0646654 -14.5749 -4.30128 90.1321 -168.776 40.0379 140.921 -6.00365 -8.56587 -0.441115 27.9401 -34.3463 44.1257 47.3625 -10.0087 93.2547 169.676 60.3346 -173.648 -7.52256 -16.3955 1.32745 2.44161 -5.38225 -15.5646 
-130.532 49.6271 -133.629 57.0873 -6.40601 -1.25428 -70.1915 0 88.8779 163.866 44.2816 -70.201 -11.0642 24.2572 5.52731 -149.2 45.4613 161.197 139.999 81.4017 -93.873 0.19943 -15.0704 -27.5489 -81.2417 51.229 -65.3762 15.0374 15.5146 -44.6653 0.420957 0.000575478 0.35866 -1.88649 8.74696 35.6605 -91.5836 -0.0035045 94.149 13.7273 -17.8254 38.599 0.58676 0.000331078 0.0646654 -14.8545 -4.28707 90.0071 -168.786 40.1069 141.268 -5.75095 -6.98895 -0.247885 31.2992 -37.4813 42.6911 47.2632 -10.2151 93.2346 169.752 60.2441 -174.064 -7.58068 -16.4751 1.32767 2.39515 -5.1688 -15.153 
-130.532 49.6682 -133.587 57.3928 -6.28184 -0.985906 -70.1915 0 88.8779 164.216 43.8815 -70.2317 -11.0778 24.2895 5.52623 -149.147 45.5953 161.178 139.226 81.4345 -92.9039 0.179658 -15.1812 -27.5598 -81.1774 51.4052 -65.3231 14.8937 15.3847 -44.5966 0.420957 0.000575478 0.35866 -1.84663 8.70872 35.295 -91.4667 -0.358068 94.072 13.3474 -17.3785 38.4723 0.58676 0.000331078 0.0646654 -15.1399 -4.29685 89.7364 -168.77 40.0202 140.732 -5.69435 -6.97234 -0.249859 31.4605 -37.5377 42.9115 46.8209 -10.4807 93.1164 169.698 60.197 -173.687 -7.20238 -16.8995 1.34034 2.50994 -4.65627 -16.0347 
-130.594 49.7009 -133.517 57.5958 -6.28799 -0.804458 -70.1915 0 88.8779 164.516 43.4962 -70.3653 -10.979 24.3445 5.42406 -149.635 45.5596 160.937 140.849 81.8043 -94.9187 0.229254 -14.9755 -27.247 -80.8991 51.7111 -65.6352 14.9817 15.5076 -44.5419 0.420957 0.000575478 0.35866 -1.84128 8.69423 35.2701 -91.6422 -0.505483 94.3056 13.2367 -17.4628 38.1009 0.58676 0.000331078 0.0646654 -15.2978 -4.19033 89.5183 -168.774 40.0438 140.884 -5.73715 -6.97933 -0.24788 32.3887 -38.4436 42.4073 46.4931 -10.5251 92.9321 169.713 60.2396 -173.811 -6.8942 -17.1309 1.35053 2.4311 -4.07028 -15.3392 
-130.674 49.6751 -133.413 57.7007 -6.37312 -0.704952 -70.1915 0 88.8779 164.781 43.2602 -70.3675 -10.9063 24.4756 5.14762 -150.121 45.6629 161.074 140.977 81.9781 -95.236 0.258204 -14.8376 -27.123 -81.096 51.8023 -65.4056 15.2396 15.7317 -44.6557 0.420957 0.000575478 0.35866 -1.8339 8.57924 35.494 -91.5125 -0.334464 94.2284 13.5322 -17.6375 38.4703 0.58676 0.000331078 0.0646654 -15.3446 -3.97745 89.3974 -168.792 40.0352 141.318 -5.70324 -6.73044 -0.218011 33.768 -39.8137 41.6647 46.392 -10.5111 92.6661 169.683 60.2526 -173.634 -7.0971 -16.8688 1.34168 2.51544 -4.85703 -16.13 
-130.691 49.6799 -133.339 57.8564 -6.20639 -0.667817 -70.1915 0 88.8779 164.907 42.9963 -70.2754 -10.8997 24.4763 4.97915 -150.217 45.7799 161.237 140.219 81.9693 -94.3301 0.248891 -14.8949 -27.1115 -80.6709 51.896 -65.4681 15.3664 15.8143 -44.7728 0.420957 0.000575478 0.35866 -1.84889 8.64869 35.4829 -91.7665 -0.46432 94.0257 13.6738 -17.7803 38.5541 0.58676 0.000331078 0.0646654 -15.3471 -4.08788 89.2341 -168.794 39.8805 141.099 -5.85046 -7.25127 -0.275799 32.891 -39.2855 41.1016 46.2595 -10.7934 92.6552 169.739 60.2471 -173.978 -6.71352 -16.9597 1.35071 2.39201 -4.76753 -15.0882 
-130.724 49.6546 -133.203 58.2479 -6.16752 -0.325241 -70.1915 0 88.8779 165.347 42.2578 -70.3237 -11.2584 24.5179 4.90655 -150.566 45.8953 161.541 140.067 82.096 -94.2891 0.281435 -14.6519 -27.3282 -80.1987 51.7291 -65.5408 14.8666 15.2261 -44.8427 0.420957 0.000575478 0.35866 -1.84374 8.52788 35.7525 -91.9005 -0.173187 94.2878 13.701 -17.9517 38.3527 0.58676 0.000331078 0.0646654 -15.8446 -3.80465 88.8798 -168.828 39.9907 142.087 -5.59727 -6.86807 -0.243054 35.0403 -41.5467 39.7433 45.7608 -11.0297 92.2584 169.799 60.1808 -174.279 -7.1628 -17.1145 1.3445 2.32858 -4.89414 -14.5639 
-130.729 49.6264 -133.066 58.5677 -6.07205 -0.101724 -70.1915 0 88.8779 165.652 41.6555 -70.2988 -11.4006 24.5913 4.59455 -150.198 46.0132 161.044 138.658 82.0354 -92.6245 0.321911 -14.4272 -27.2863 -80.121 51.705 -65.2769 15.6487 15.8456 -45.2571 0.420957 0.000575478 0.35866 -1.84332 8.47392 35.8978 -91.6191 0.0033889 94.2712 13.3122 -17.3732 38.404 0.58676 0.000331078 0.0646654 -16.1671 -3.72042 88.4927 -168.828 39.8911 141.898 -5.47215 -6.76881 -0.239066 35.1419 -41.6264 39.7548 45.4139 -11.048 92.0899 169.84 60.0699 -174.439 -7.46694 -16.9905 1.33635 2.37302 -5.58593 -14.9906 
-130.809 49.6226 -133.011 58.6631 -6.00659 0.0562713 -70.1915 0 88.8779 165.878 41.2905 -70.2449 -11.2726 24.5752 4.40778 -150.803 46.3659 161.054 136.59 82.2009 -90.9836 0.395154 -14.0434 -27.0695 -81.1705 51.9184 -64.3926 16.0717 16.2524 -45.3491 0.420957 0.000575478 0.35866 -1.85752 8.55008 35.8561 -91.1887 0.169758 94.2181 13.3428 -17.3523 38.5031 0.58676 0.000331078 0.0646654 -16.1365 -3.70546 88.2759 -168.861 39.8217 142.529 -5.64488 -6.91554 -0.245928 34.9795 -42.0206 38.324 45.3207 -11.3265 91.8753 169.834 60.1221 -174.41 -7.65487 -16.9356 1.33201 2.36468 -5.33292 -14.8803 
-130.902 49.6524 -132.937 58.6242 -5.92279 0.00657146 -70.1915 0 88.8779 166.105 41.1767 -70.3238 -11.1728 24.7101 4.18012 -150.936 46.462 161.215 136.336 82.3243 -90.8601 0.389276 -14.0668 -27.1245 -81.5745 51.8269 -63.7722 15.7616 15.9498 -45.2884 0.420957 0.000575478 0.35866 -1.83785 8.53026 35.6754 -91.4415 -0.0677804 94.0526 13.4253 -17.4668 38.5036 0.58676 0.000331078 0.0646654 -15.961 -3.81579 88.1663 -168.862 39.7246 142.375 -6.1198 -7.0224 -0.227274 34.2268 -41.3773 38.3401 45.3981 -11.771 91.7361 169.817 60.1485 -174.304 -7.42158 -17.3761 1.34247 2.29523 -4.30436 -14.2852 
-130.947 49.6505 -132.765 58.7805 -5.8292 0.193732 -70.1915 0 88.8779 166.33 40.8486 -70.5493 -11.3337 24.6872 4.4784 -150.893 46.5827 161.791 134.175 81.8798 -88.5528 0.407081 -13.9363 -27.252 -81.7386 51.8749 -63.4976 15.3485 15.8115 -44.7393 0.420957 0.000575478 0.35866 -1.84864 8.53454 35.793 -91.1963 0.295401 94.0141 13.0896 -16.9484 38.5867 0.58676 0.000331078 0.0646654 -16.0304 -3.67444 87.8068 -168.857 39.6346 142.061 -6.27668 -6.81918 -0.189739 34.5238 -41.4459 38.8475 45.1961 -12.0659 91.4315 169.777 60.0206 -173.938 -7.7328 -17.4755 1.33648 2.41096 -4.42048 -15.2177 
-130.966 49.6819 -132.603 59.0824 -5.51891 0.45297 -70.1915 0 88.8779 166.673 40.2801 -70.3782 -11.4796 24.7295 4.12881 -150.714 46.6175 161.843 132.831 81.5603 -87.3336 0.421906 -13.8585 -27.207 -81.5312 51.7688 -63.388 15.5035 16.0487 -44.6208 0.420957 0.000575478 0.35866 -1.85147 8.50486 35.9076 -91.6371 0.154007 93.7623 13.259 -17.0654 38.7725 0.58676 0.000331078 0.0646654 -16.2377 -3.76954 87.3684 -168.822 39.53 141.006 -6.00047 -5.99144 -0.098894 35.1286 -41.2897 40.6309 44.8206 -12.7311 91.133 169.793 59.9955 -174.007 -8.31163 -17.5226 1.32278 2.39224 -4.71079 -15.0899 
-131.031 49.7337 -132.351 59.5142 -5.53545 0.667263 -70.1915 0 88.8779 167.013 39.7105 -70.6718 -11.5123 24.8408 4.02464 -150.25 46.5588 161.168 133.437 81.7438 -87.7685 0.447241 -13.7581 -26.9543 -81.5873 51.7856 -63.1198 15.3567 15.9164 -44.5577 0.420957 0.000575478 0.35866 -1.83374 8.33918 36.1639 -91.7149 0.326299 94.0603 13.2464 -17.0641 38.7471 0.58676 0.000331078 0.0646654 -16.7353 -3.4997 86.8356 -168.813 39.4889 140.654 -6.31158 -6.5771 -0.15383 34.7694 -40.8524 41.0341 44.2332 -12.875 90.6726 169.778 59.9237 -173.844 -8.05025 -18.0179 1.33293 2.44603 -4.20761 -15.478 
-130.994 49.7162 -132.071 59.6439 -5.48793 0.644398 -70.1915 0 88.8779 167.012 39.6553 -70.7465 -11.2508 24.8922 3.90836 -150.985 46.7267 161.481 132.818 81.8787 -87.5811 0.486003 -13.5253 -26.9664 -81.8811 51.5902 -63.0163 15.5436 16.319 -44.2377 0.420957 0.000575478 0.35866 -1.81189 8.39495 35.7389 -92.2227 -0.366438 94.3018 13.3579 -17.379 38.494 0.58676 0.000331078 0.0646654 -17.0134 -3.26235 86.6112 -168.797 39.4957 140.236 -6.39917 -6.6492 -0.157326 34.8893 -40.5373 42.1852 44.0947 -12.8989 90.3855 169.832 59.785 -174.078 -8.47875 -18.0376 1.32085 2.41784 -4.55666 -15.2759 
